<svg xmlns="http://www.w3.org/2000/svg" width="680" viewBox="0 0 680 320">
<style>
  :root {
    --bg: #ffffff;
    --fg: #1a1a1a;
    --fg2: #6b6b6b;
    --fg3: #999999;
    --line: #cccccc;
    --box-bg: #fafafa;
    --box-stroke: #d4d4d4;
  }

  text {
    font-family: "SF Mono", "Cascadia Code", "Fira Code", Consolas, monospace;
  }
</style>

<defs>
  <marker id="a" viewBox="0 0 10 10" refX="8" refY="5" markerWidth="5" markerHeight="5" orient="auto-start-reverse">
    <path d="M2 2L8 5L2 8" fill="none" stroke="context-stroke" stroke-width="1.5" stroke-linecap="round" stroke-linejoin="round"/>
  </marker>
</defs>

<rect width="680" height="320" fill="var(--bg)"/>

<rect x="60" y="28" width="120" height="38" rx="3" fill="var(--box-bg)" stroke="var(--box-stroke)" stroke-width="0.7"/>
<text x="120" y="47" text-anchor="middle" dominant-baseline="central" font-size="11" fill="var(--fg)">input.json</text>

<rect x="270" y="22" width="140" height="50" rx="3" fill="var(--box-bg)" stroke="var(--box-stroke)" stroke-width="0.7"/>
<text x="340" y="39" text-anchor="middle" dominant-baseline="central" font-size="11" fill="var(--fg)">simulator-cli</text>
<text x="340" y="57" text-anchor="middle" dominant-baseline="central" font-size="9" fill="var(--fg3)">json adapter</text>

<rect x="500" y="28" width="120" height="38" rx="3" fill="var(--box-bg)" stroke="var(--box-stroke)" stroke-width="0.7"/>
<text x="560" y="47" text-anchor="middle" dominant-baseline="central" font-size="11" fill="var(--fg)">output.json</text>

<line x1="180" y1="47" x2="270" y2="47" stroke="var(--line)" stroke-width="0.8" marker-end="url(#a)"/>
<text x="225" y="34" text-anchor="middle" font-size="8.5" fill="var(--fg3)">commands</text>

<line x1="410" y1="47" x2="500" y2="47" stroke="var(--line)" stroke-width="0.8" marker-end="url(#a)"/>
<text x="455" y="34" text-anchor="middle" font-size="8.5" fill="var(--fg3)">stepStatuses</text>

<rect x="48" y="100" width="584" height="190" rx="4" fill="none" stroke="var(--line)" stroke-width="0.7" stroke-dasharray="4 3"/>
<text x="64" y="115" font-size="9" fill="var(--fg3)" letter-spacing="0.5">simulator-core</text>

<rect x="78" y="132" width="132" height="44" rx="3" fill="var(--box-bg)" stroke="var(--box-stroke)" stroke-width="0.7"/>
<text x="144" y="149" text-anchor="middle" dominant-baseline="central" font-size="10.5" fill="var(--fg)">command model</text>
<text x="144" y="165" text-anchor="middle" dominant-baseline="central" font-size="8.5" fill="var(--fg3)">addVehicle / step</text>

<rect x="274" y="132" width="132" height="44" rx="3" fill="var(--box-bg)" stroke="var(--box-stroke)" stroke-width="0.7"/>
<text x="340" y="149" text-anchor="middle" dominant-baseline="central" font-size="10.5" fill="var(--fg)">simulation engine</text>
<text x="340" y="165" text-anchor="middle" dominant-baseline="central" font-size="8.5" fill="var(--fg3)">executes commands</text>

<rect x="470" y="132" width="132" height="44" rx="3" fill="var(--box-bg)" stroke="var(--box-stroke)" stroke-width="0.7"/>
<text x="536" y="149" text-anchor="middle" dominant-baseline="central" font-size="10.5" fill="var(--fg)">safety validator</text>
<text x="536" y="165" text-anchor="middle" dominant-baseline="central" font-size="8.5" fill="var(--fg3)">conflict matrix</text>

<rect x="78" y="218" width="132" height="44" rx="3" fill="var(--box-bg)" stroke="var(--box-stroke)" stroke-width="0.7"/>
<text x="144" y="235" text-anchor="middle" dominant-baseline="central" font-size="10.5" fill="var(--fg)">intersection state</text>
<text x="144" y="251" text-anchor="middle" dominant-baseline="central" font-size="8.5" fill="var(--fg3)">fifo lane queues</text>

<rect x="274" y="218" width="132" height="44" rx="3" fill="var(--box-bg)" stroke="var(--box-stroke)" stroke-width="0.7"/>
<text x="340" y="235" text-anchor="middle" dominant-baseline="central" font-size="10.5" fill="var(--fg)">phase scheduler</text>
<text x="340" y="251" text-anchor="middle" dominant-baseline="central" font-size="8.5" fill="var(--fg3)">adaptive deficit</text>

<rect x="470" y="218" width="132" height="44" rx="3" fill="var(--box-bg)" stroke="var(--box-stroke)" stroke-width="0.7"/>
<text x="536" y="235" text-anchor="middle" dominant-baseline="central" font-size="10.5" fill="var(--fg)">traffic phases</text>
<text x="536" y="251" text-anchor="middle" dominant-baseline="central" font-size="8.5" fill="var(--fg3)">safe movements</text>

<line x1="340" y1="72" x2="340" y2="132" stroke="var(--line)" stroke-width="0.8" marker-end="url(#a)"/>

<line x1="210" y1="154" x2="274" y2="154" stroke="var(--line)" stroke-width="0.8" marker-end="url(#a)"/>
<text x="242" y="142" text-anchor="middle" font-size="8.5" fill="var(--fg3)">commands</text>

<line x1="340" y1="176" x2="340" y2="218" stroke="var(--line)" stroke-width="0.8" marker-end="url(#a)"/>
<text x="356" y="199" font-size="8.5" fill="var(--fg3)">select</text>

<line x1="274" y1="240" x2="210" y2="240" stroke="var(--line)" stroke-width="0.8" marker-end="url(#a)"/>
<text x="242" y="229" text-anchor="middle" font-size="8.5" fill="var(--fg3)">queues</text>

<line x1="406" y1="154" x2="470" y2="154" stroke="var(--line)" stroke-width="0.8" marker-end="url(#a)"/>
<text x="438" y="142" text-anchor="middle" font-size="8.5" fill="var(--fg3)">validate</text>

<line x1="536" y1="218" x2="536" y2="176" stroke="var(--line)" stroke-width="0.8" marker-end="url(#a)"/>

<line x1="470" y1="240" x2="406" y2="240" stroke="var(--line)" stroke-width="0.8" marker-end="url(#a)"/>
<text x="438" y="229" text-anchor="middle" font-size="8.5" fill="var(--fg3)">phases</text>
</svg>
